<svg width="217" height="148" viewBox="0 0 217 148" fill="none" xmlns="http://www.w3.org/2000/svg">
<path d="M10.5591 147.243C9.54013 147.243 8.65667 147.02 7.90871 146.576C7.17159 146.121 6.59707 145.481 6.18515 144.657C5.78407 143.833 5.58353 142.852 5.58353 141.714C5.58353 140.576 5.79491 139.595 6.21767 138.771C6.65127 137.947 7.25289 137.313 8.02253 136.869C8.79217 136.414 9.67563 136.186 10.6729 136.186C11.7352 136.186 12.597 136.386 13.2583 136.787C13.9303 137.189 14.4723 137.806 14.8843 138.641L13.6973 139.292C13.4588 138.674 13.0794 138.208 12.5591 137.893C12.0496 137.568 11.4209 137.405 10.6729 137.405C9.94663 137.405 9.30165 137.579 8.73797 137.926C8.18513 138.262 7.74611 138.755 7.42091 139.405C7.10655 140.045 6.94937 140.815 6.94937 141.714C6.94937 143.058 7.25831 144.115 7.87619 144.885C8.50491 145.644 9.41547 146.023 10.6079 146.023C11.2041 146.023 11.7407 145.926 12.2176 145.73C12.6946 145.525 13.074 145.216 13.3558 144.804C13.6377 144.392 13.7786 143.877 13.7786 143.259V142.885H10.364V141.665H14.9656V147.08H13.9412L13.8924 145.633C13.5672 146.153 13.1228 146.554 12.5591 146.836C12.0062 147.107 11.3396 147.243 10.5591 147.243ZM60.0052 136.348C61.1 136.348 61.9781 136.63 62.6393 137.194C63.3006 137.758 63.6312 138.522 63.6312 139.487C63.6312 140.256 63.4144 140.89 62.9808 141.389C62.5472 141.888 61.9618 142.229 61.2247 142.413L64.2816 147.08H62.7369L59.8101 142.625H57.241V147.08H55.9402V136.348H60.0052ZM59.9889 141.405C61.5065 141.405 62.2653 140.766 62.2653 139.487C62.2653 138.208 61.5065 137.568 59.9889 137.568H57.241V141.405H59.9889ZM108.924 136.186C109.943 136.186 110.821 136.414 111.558 136.869C112.306 137.313 112.88 137.947 113.281 138.771C113.693 139.595 113.899 140.576 113.899 141.714C113.899 142.852 113.693 143.833 113.281 144.657C112.88 145.481 112.306 146.121 111.558 146.576C110.821 147.02 109.943 147.243 108.924 147.243C107.905 147.243 107.021 147.02 106.273 146.576C105.536 146.121 104.962 145.481 104.55 144.657C104.149 143.833 103.948 142.852 103.948 141.714C103.948 140.576 104.149 139.595 104.55 138.771C104.962 137.947 105.536 137.313 106.273 136.869C107.021 136.414 107.905 136.186 108.924 136.186ZM108.924 137.405C107.807 137.405 106.924 137.785 106.273 138.544C105.634 139.302 105.314 140.359 105.314 141.714C105.314 143.058 105.634 144.115 106.273 144.885C106.924 145.644 107.807 146.023 108.924 146.023C110.04 146.023 110.918 145.644 111.558 144.885C112.208 144.115 112.533 143.058 112.533 141.714C112.533 140.359 112.208 139.302 111.558 138.544C110.918 137.785 110.04 137.405 108.924 137.405ZM162.913 136.348V143.08C162.913 144.457 162.55 145.497 161.824 146.202C161.097 146.896 160.057 147.243 158.702 147.243C157.357 147.243 156.317 146.896 155.58 146.202C154.853 145.497 154.49 144.457 154.49 143.08V136.348H155.791V142.755C155.791 143.871 156.024 144.695 156.49 145.226C156.967 145.758 157.704 146.023 158.702 146.023C159.699 146.023 160.431 145.758 160.897 145.226C161.374 144.695 161.612 143.871 161.612 142.755V136.348H162.913ZM207.942 136.348C208.669 136.348 209.297 136.484 209.829 136.755C210.371 137.015 210.793 137.389 211.097 137.877C211.4 138.365 211.552 138.945 211.552 139.617C211.552 140.289 211.4 140.869 211.097 141.357C210.793 141.844 210.371 142.224 209.829 142.495C209.297 142.755 208.669 142.885 207.942 142.885H205.455V147.08H204.154V136.348H207.942ZM207.747 141.665C208.593 141.665 209.211 141.492 209.601 141.145C209.991 140.787 210.186 140.278 210.186 139.617C210.186 138.945 209.991 138.435 209.601 138.088C209.211 137.741 208.593 137.568 207.747 137.568H205.455V141.665H207.747Z" fill="black"/>
<path d="M40.6504 103.56V62.91M40.6504 22.26V62.91M40.6504 62.91H100.27V22.26V119.82H211.38V62.91V6H135.5" stroke="black" stroke-width="10.84"/>
<path d="M116.53 103.56V6H5.41992V119.82H81.2999" stroke="black" stroke-width="10.84"/>
<g clip-path="url(#clip0)">
<path d="M181.57 16.8401L113.82 58.9612L181.57 108.98" stroke="black" stroke-width="10.84"/>
</g>
<defs>
<clipPath id="clip0">
<rect width="65.04" height="81.3" fill="white" transform="translate(119.24 22.26)"/>
</clipPath>
</defs>
</svg>
